<svg viewBox="0 0 800 420" xmlns="http://www.w3.org/2000/svg" font-family="system-ui, -apple-system, sans-serif">
  <!-- Background -->
  <rect width="800" height="420" fill="#0f172a" rx="12"/>

  <!-- Title -->
  <text x="400" y="38" text-anchor="middle" fill="#f8fafc" font-size="18" font-weight="700">EcoSwitch AI — System Overview</text>
  <text x="400" y="58" text-anchor="middle" fill="#64748b" font-size="12">v0.1.0 · Active Development</text>

  <!-- IoT Layer -->
  <rect x="30" y="80" width="160" height="120" rx="8" fill="#1e293b" stroke="#475569" stroke-width="1.5"/>
  <text x="110" y="100" text-anchor="middle" fill="#94a3b8" font-size="10" font-weight="600">🔌 IoT LAYER</text>
  <text x="110" y="113" text-anchor="middle" fill="#64748b" font-size="9">Planned</text>
  <rect x="50" y="120" width="120" height="30" rx="5" fill="#0f172a" stroke="#334155"/>
  <text x="110" y="140" text-anchor="middle" fill="#cbd5e1" font-size="10">ESP32 MCU</text>
  <rect x="50" y="158" width="120" height="30" rx="5" fill="#0f172a" stroke="#334155"/>
  <text x="110" y="178" text-anchor="middle" fill="#cbd5e1" font-size="10">Current Sensors</text>

  <!-- Arrow IoT → API -->
  <line x1="190" y1="140" x2="230" y2="140" stroke="#475569" stroke-width="1.5" stroke-dasharray="4,3" marker-end="url(#arrow-gray)"/>
  <text x="210" y="132" text-anchor="middle" fill="#475569" font-size="8">HTTP</text>

  <!-- API Layer -->
  <rect x="230" y="80" width="180" height="220" rx="8" fill="#1e293b" stroke="#16a34a" stroke-width="1.5"/>
  <text x="320" y="100" text-anchor="middle" fill="#86efac" font-size="10" font-weight="600">⚡ API LAYER</text>
  <text x="320" y="113" text-anchor="middle" fill="#16a34a" font-size="9">✅ Implemented</text>
  <rect x="250" y="122" width="140" height="28" rx="5" fill="#0f172a" stroke="#334155"/>
  <text x="320" y="140" text-anchor="middle" fill="#cbd5e1" font-size="10">Express 5</text>
  <rect x="250" y="158" width="140" height="28" rx="5" fill="#0f172a" stroke="#334155"/>
  <text x="320" y="176" text-anchor="middle" fill="#cbd5e1" font-size="10">Zod Validation</text>
  <rect x="250" y="194" width="140" height="28" rx="5" fill="#0f172a" stroke="#334155"/>
  <text x="320" y="212" text-anchor="middle" fill="#cbd5e1" font-size="10">Pino Logger</text>
  <rect x="250" y="230" width="140" height="28" rx="5" fill="#0f172a" stroke="#16a34a" stroke-width="1.5"/>
  <text x="320" y="248" text-anchor="middle" fill="#86efac" font-size="10">GET /api/healthz ✅</text>
  <rect x="250" y="266" width="140" height="28" rx="5" fill="#0f172a" stroke="#334155" stroke-dasharray="4,3"/>
  <text x="320" y="284" text-anchor="middle" fill="#475569" font-size="10">POST /api/readings 📌</text>

  <!-- Arrow API → DB -->
  <line x1="410" y1="190" x2="450" y2="190" stroke="#16a34a" stroke-width="1.5" marker-end="url(#arrow-green)"/>

  <!-- Data Layer -->
  <rect x="450" y="80" width="160" height="170" rx="8" fill="#1e293b" stroke="#16a34a" stroke-width="1.5"/>
  <text x="530" y="100" text-anchor="middle" fill="#86efac" font-size="10" font-weight="600">🗄️ DATA LAYER</text>
  <text x="530" y="113" text-anchor="middle" fill="#16a34a" font-size="9">✅ Scaffolded</text>
  <rect x="468" y="122" width="124" height="28" rx="5" fill="#0f172a" stroke="#334155"/>
  <text x="530" y="140" text-anchor="middle" fill="#cbd5e1" font-size="10">Drizzle ORM</text>
  <rect x="468" y="158" width="124" height="36" rx="5" fill="#0f172a" stroke="#16a34a" stroke-width="1.5"/>
  <text x="530" y="178" text-anchor="middle" fill="#86efac" font-size="10">PostgreSQL</text>
  <text x="530" y="191" text-anchor="middle" fill="#16a34a" font-size="8">Connected</text>
  <rect x="468" y="202" width="124" height="36" rx="5" fill="#0f172a" stroke="#334155" stroke-dasharray="4,3"/>
  <text x="530" y="222" text-anchor="middle" fill="#475569" font-size="10">Firebase Firestore</text>
  <text x="530" y="234" text-anchor="middle" fill="#475569" font-size="8">📌 Planned</text>

  <!-- Arrow API → Frontend -->
  <line x1="320" y1="300" x2="320" y2="330" stroke="#475569" stroke-width="1.5" marker-end="url(#arrow-gray)"/>

  <!-- Frontend Layer -->
  <rect x="30" y="330" width="580" height="70" rx="8" fill="#1e293b" stroke="#475569" stroke-width="1.5"/>
  <text x="200" y="350" text-anchor="middle" fill="#94a3b8" font-size="10" font-weight="600">🖥️ FRONTEND LAYER · In Development</text>
  <rect x="50" y="358" width="120" height="28" rx="5" fill="#0f172a" stroke="#334155"/>
  <text x="110" y="376" text-anchor="middle" fill="#cbd5e1" font-size="10">React 19 + Vite 6</text>
  <rect x="182" y="358" width="120" height="28" rx="5" fill="#0f172a" stroke="#334155"/>
  <text x="242" y="376" text-anchor="middle" fill="#cbd5e1" font-size="10">shadcn/ui · 50+ cmpts</text>
  <rect x="314" y="358" width="120" height="28" rx="5" fill="#0f172a" stroke="#334155"/>
  <text x="374" y="376" text-anchor="middle" fill="#cbd5e1" font-size="10">React Query v5</text>
  <rect x="446" y="358" width="120" height="28" rx="5" fill="#0f172a" stroke="#334155" stroke-dasharray="4,3"/>
  <text x="506" y="376" text-anchor="middle" fill="#475569" font-size="10">Recharts 📌</text>

  <!-- Legend -->
  <rect x="640" y="80" width="140" height="110" rx="6" fill="#1e293b" stroke="#334155"/>
  <text x="710" y="98" text-anchor="middle" fill="#94a3b8" font-size="10" font-weight="600">Legend</text>
  <rect x="654" y="108" width="10" height="10" rx="2" fill="#16a34a"/>
  <text x="670" y="118" fill="#94a3b8" font-size="9">✅ Implemented</text>
  <rect x="654" y="124" width="10" height="10" rx="2" fill="#f59e0b"/>
  <text x="670" y="134" fill="#94a3b8" font-size="9">🚧 In Progress</text>
  <rect x="654" y="140" width="10" height="10" rx="2" fill="#475569"/>
  <text x="670" y="150" fill="#94a3b8" font-size="9">📌 Planned</text>
  <line x1="654" y1="162" x2="680" y2="162" stroke="#16a34a" stroke-width="1.5"/>
  <text x="686" y="166" fill="#94a3b8" font-size="9">Active link</text>
  <line x1="654" y1="176" x2="680" y2="176" stroke="#475569" stroke-width="1.5" stroke-dasharray="4,3"/>
  <text x="686" y="180" fill="#94a3b8" font-size="9">Planned link</text>

  <!-- Defs -->
  <defs>
    <marker id="arrow-green" markerWidth="8" markerHeight="8" refX="6" refY="3" orient="auto">
      <path d="M0,0 L0,6 L8,3 z" fill="#16a34a"/>
    </marker>
    <marker id="arrow-gray" markerWidth="8" markerHeight="8" refX="6" refY="3" orient="auto">
      <path d="M0,0 L0,6 L8,3 z" fill="#475569"/>
    </marker>
  </defs>
</svg>
